Coordinates
version=1
nRows=19
nColumns=36
inDegrees=yes

Units are S.I. units (second, meters, Newtons, ...)
If the header above contains a line with 'inDegrees', this indicates whether rotational values are in degrees (yes) or radians (no).

endheader
time	pelvis_tilt	pelvis_list	pelvis_rotation	pelvis_tx	pelvis_ty	pelvis_tz	hip_flexion_r	hip_adduction_r	hip_rotation_r	knee_angle_r	knee_angle_r_beta	ankle_angle_r	subtalar_angle_r	mtp_angle_r	hip_flexion_l	hip_adduction_l	hip_rotation_l	knee_angle_l	knee_angle_l_beta	ankle_angle_l	subtalar_angle_l	mtp_angle_l	lumbar_extension	lumbar_bending	lumbar_rotation	arm_flex_r	arm_add_r	arm_rot_r	elbow_flex_r	pro_sup_r	arm_flex_l	arm_add_l	arm_rot_l	elbow_flex_l	pro_sup_l
      0.00000000	      0.93581297	     -1.80541025	     -6.99015998	      0.76288975	      1.33181034	     -0.06174242	     -1.26762234	     -0.52047390	      5.89062014	      4.08976210	      0.07137981	      5.60645253	     -8.73453363	     -6.72125997	     -4.54597419	     -0.55768926	      0.45658108	      3.23030324	      0.05637943	      9.57890339	     -6.30137700	     -6.72125997	     -7.71313818	      2.70382866	      0.35121566	      5.02685665	     -9.66113848	      5.44199739	     23.33416631	     93.86980191	      4.28812474	     -9.06679823	      5.88694491	     20.77636466	     92.89746628
      0.01666670	      0.78965499	     -1.41359172	     -7.92464089	      0.76258947	      1.32974202	     -0.06171625	     -1.94805534	     -1.10260222	      6.75143891	      2.60443542	      0.04545597	      7.55353346	     -6.36569026	     -7.08434002	     -4.56775570	      0.14446134	     -0.40524774	      2.75125055	      0.04801838	      8.91628175	     -7.16235790	     -7.08434002	     -7.27607318	      2.18983807	      0.79423083	      5.59883457	     -9.57912801	      6.82973407	     22.27965532	     96.29780600	      3.89689535	     -8.60281404	      3.26207598	     20.36953365	     94.98325180
      0.03333330	      1.38722404	     -1.48496887	     -7.88241636	      0.76198547	      1.33373141	     -0.06169850	     -2.67006063	     -1.06993261	      6.33912124	      2.46896981	      0.04309165	      8.09938835	     -6.05402893	     -7.14664884	     -5.23519052	      0.24496515	     -0.26662415	      2.60813961	      0.04552062	      9.01304945	     -7.53612750	     -7.14664884	     -8.36565418	      2.14921974	      0.60088210	      5.86860477	     -9.57026091	      7.35417030	     22.62195671	     94.59780089	      4.28804170	     -8.64974831	      3.56882687	     20.29601141	     93.19255719
      0.05000000	      1.51644126	     -1.38557127	     -7.55057498	      0.76040311	      1.33332131	     -0.06244777	     -2.70319585	     -1.24381168	      5.53500705	      2.69933720	      0.04711232	      8.69310483	     -5.47802544	     -7.17923372	     -5.14698648	      0.47147190	     -0.53369893	      2.72001678	      0.04747325	      8.97535348	     -7.77576058	     -7.17923372	     -8.53880292	      2.05760248	      0.18870408	      6.77059417	     -9.45777899	      8.75833514	     21.38596752	     95.19747142	      4.97915998	     -8.62921440	      4.31875744	     18.46605135	     93.70501237
      0.06666670	      1.79289727	     -1.32466545	     -7.41817338	      0.75957701	      1.33383265	     -0.06245037	     -2.82825366	     -1.31769458	      5.39716515	      3.08314665	      0.05381106	      9.29441158	     -5.38567409	     -7.30783129	     -5.31876759	      0.61064471	     -0.61197527	      2.82196991	      0.04925267	      9.13323650	     -7.69584600	     -7.30783129	     -9.03263367	      1.93166210	     -0.20561634	      7.36998717	     -9.42867587	      9.78163142	     21.33044384	     99.05472343	      4.86848589	     -8.68079113	      2.66245209	     18.77518133	     98.72502720
      0.08333330	      1.99471210	     -1.20606877	     -7.47675681	      0.75782302	      1.33421914	     -0.06262899	     -2.77533750	     -1.48166029	      5.25710297	      3.58585661	      0.06258500	      9.64005251	     -5.35529976	     -7.34457230	     -5.49767972	      0.77492157	     -0.86429283	      2.80289570	      0.04891976	      9.09910331	     -7.48195210	     -7.34457230	     -9.33535647	      1.71658787	     -0.21788831	      7.82694790	     -9.23810342	     10.47305821	     20.98332704	     97.35602779	      5.30633712	     -8.73791302	      3.27296449	     18.00540279	     97.26673227
      0.10000000	      2.22528655	     -1.13259710	     -7.52068158	      0.75704861	      1.33467784	     -0.06236895	     -2.82313709	     -1.58420302	      5.13981881	      3.94063914	      0.06877713	      9.80658252	     -5.43154241	     -7.45757458	     -5.70891342	      0.85966491	     -1.13911162	      2.80960340	      0.04903683	      9.00527706	     -7.34857231	     -7.45757458	     -9.74830103	      1.55255123	     -0.27886950	      8.13098402	     -9.16574663	     10.87484130	     21.13614816	     99.33576162	      5.30302117	     -8.86132045	      2.36575418	     17.92105275	    100.63519961
      0.11666670	      2.51917140	     -1.10366830	     -7.55195836	      0.75558168	      1.33851414	     -0.06240458	     -2.97281857	     -1.63574885	      5.06268164	      4.25964017	      0.07434475	      9.83363597	     -5.55098464	     -7.46578804	     -6.05721995	      0.91661714	     -1.33429999	      2.75590673	      0.04809965	      8.76661818	     -7.29746488	     -7.46578804	    -10.19208761	      1.39808575	     -0.29817643	      8.46309052	     -9.03454523	     11.65066876	     20.95854650	     98.06548491	      5.57482365	     -9.01406592	      3.05016769	     17.30148156	     99.62172039
      0.13333330	      2.82451967	     -1.03990201	     -7.58825878	      0.75508296	      1.33881148	     -0.06209102	     -3.18857928	     -1.72577924	      5.07802522	      4.48388822	      0.07825861	      9.84546270	     -5.68494291	     -7.46759826	     -6.39627050	      1.02139935	     -1.46900024	      2.70969457	      0.04729309	      8.55650240	     -7.25616576	     -7.46759826	    -10.69266483	      1.22416569	     -0.25391398	      8.63850735	     -9.03680347	     11.81163569	     21.39951523	     97.77565842	      5.58231191	     -9.20019041	      3.17550431	     17.44542624	     99.44316956
      0.15000000	      3.08469854	     -1.01139547	     -7.61527619	      0.75394170	      1.33878459	     -0.06217952	     -3.36040263	     -1.75753769	      5.19494763	      4.65462925	      0.08123861	      9.72855844	     -5.98416297	     -7.47015633	     -6.60397437	      1.08040436	     -1.60726806	      2.79282109	      0.04874392	      8.52152237	     -7.06584439	     -7.47015633	    -11.15797499	      1.07372861	     -0.20719531	      8.83569118	     -9.07517728	     12.25637863	     21.65859034	     97.66416561	      5.83096006	     -9.39176016	      3.49430777	     17.38390214	     99.54686940
      0.16666670	      3.23854743	     -0.98270838	     -7.63857015	      0.75327475	      1.33604330	     -0.06173157	     -3.42653526	     -1.77706763	      5.24316194	      4.81670651	      0.08406739	      9.77031496	     -6.21470147	     -7.46937592	     -6.71747906	      1.10711444	     -1.78041983	      2.85746551	      0.04987218	      8.54717539	     -6.86315276	     -7.46937592	    -11.47164611	      0.93231225	     -0.14658371	      8.94027926	     -9.14906480	     12.56439192	     21.95471721	     99.45987800	      6.09628635	     -9.55325520	      3.50823897	     17.26504065	    102.05701782
      0.18333330	      3.40663889	     -0.94539148	     -7.65319448	      0.75241987	      1.33606982	     -0.06182510	     -3.53279780	     -1.81334941	      5.35818878	      4.92925313	      0.08603170	      9.74616115	     -6.43759980	     -7.47578376	     -6.78418828	      1.14862792	     -1.63348481	      2.97495071	      0.05192268	      8.34932462	     -7.15227451	     -7.47578376	    -11.80679991	      0.77637437	     -0.12764851	      8.98902452	     -9.17089059	     12.88484896	     22.35766908	     97.23249969	      6.19408957	     -9.65735124	      3.79262337	     17.47219565	     99.92574541
      0.20000000	      3.40086942	     -0.90440789	     -7.54127658	      0.74575966	      1.33603978	     -0.06632468	     -3.37944691	     -1.84095951	      5.31625555	      5.05817826	      0.08828186	      9.71839221	     -6.51878086	     -7.47592289	     -6.64944628	      1.18037176	     -1.71556863	      3.03884075	      0.05303778	      8.23481875	     -7.05018167	     -7.47592289	    -12.07163087	      0.75214534	     -0.21806735	      9.26750596	     -9.23148114	     12.89972345	     22.52399845	     97.30694228	      6.49738997	     -9.73895728	      3.81498663	     17.58370058	    100.04167578
      0.21666670	      3.57044377	     -0.89555023	     -7.44458847	      0.74567372	      1.33901676	     -0.06670121	     -3.48702702	     -1.85960583	      5.40003195	      5.11100906	      0.08920394	      9.70568872	     -6.71125977	     -7.47853888	     -6.75040330	      1.20918988	     -1.80899677	      3.07275673	      0.05362972	      8.20061709	     -6.90296463	     -7.47853888	    -12.60049113	      0.70141896	     -0.31844443	      9.16122214	     -9.42459648	     12.98511153	     23.59560819	     96.16463619	      6.54174347	     -9.85845192	      3.97215459	     18.40052575	     99.11112756
      0.23333330	      3.48360111	     -0.83895425	     -7.35644945	      0.74602356	      1.33898582	     -0.06647739	     -3.30974369	     -1.91038861	      5.37526664	      5.17892027	      0.09038921	      9.66070664	     -6.83899048	     -7.49221779	     -6.55188049	      1.26216547	     -1.88409699	      3.14979470	      0.05497429	      8.16961345	     -6.83973522	     -7.49221779	    -12.63665387	      0.64432827	     -0.36688337	      9.22049172	     -9.44059078	     12.38009836	     23.65037574	    100.04429962	      6.87554335	     -9.83483430	      3.30995876	     18.22286802	    104.22289773
      0.25000000	      3.47731565	     -0.84777735	     -7.33067197	      0.75230103	      1.33885510	     -0.06196803	     -3.33230484	     -1.90200056	      5.37323407	      5.18959532	      0.09057553	      9.65891846	     -6.83888903	     -7.49221822	     -6.56499343	      1.26053204	     -1.88634130	      3.15898420	      0.05513468	      8.16611275	     -6.84057096	     -7.49221822	    -12.64290255	      0.64889654	     -0.36702805	      9.23233888	     -9.44529636	     12.37903632	     23.65290486	    100.04417863	      6.88306512	     -9.82978167	      3.31006290	     18.22453396	    104.22273492
      0.26666670	      3.66268973	     -0.89741018	     -7.29444836	      0.75233442	      1.33896715	     -0.06177331	     -3.55534162	     -1.86790231	      5.28732977	      5.18663965	      0.09052394	      9.63939104	     -6.85732877	     -7.49283225	     -6.77939855	      1.22047289	     -2.00569033	      3.15281324	      0.05502697	      7.94596004	     -6.86733930	     -7.49283225	    -13.01368540	      0.62686201	     -0.39921724	      9.26099072	     -9.51491959	     12.45001852	     24.27478676	     99.12820874	      6.81107461	     -9.95746731	      3.24026990	     18.66457678	    103.18316091
      0.28333330	      3.64307544	     -0.90595805	     -7.22019323	      0.75175587	      1.33866224	     -0.06198612	     -3.58746367	     -1.85329275	      5.23479100	      5.20443040	      0.09083445	      9.65007150	     -6.80264041	     -7.49425944	     -6.76376658	      1.19072005	     -2.02025583	      3.16963511	      0.05532057	      7.82908020	     -6.94020674	     -7.49425944	    -12.95488740	      0.59239617	     -0.43009895	      9.36314902	     -9.51871097	     13.11309063	     23.90979238	     98.65797336	      7.03711125	     -9.94001921	      3.63259414	     18.14659526	    102.83542680
      0.30000000	      3.74304109	     -0.94333117	     -7.14664245	      0.75203112	      1.33875885	     -0.06183275	     -3.78201080	     -1.81231025	      5.23705159	      5.17147604	      0.09025928	      9.71033837	     -6.75593380	     -7.49477246	     -6.90133025	      1.14833501	     -2.09030239	      3.13564083	      0.05472726	      7.85263641	     -6.80596683	     -7.49477246	    -13.17978330	      0.56239447	     -0.45392551	      9.20932732	     -9.56411195	     13.09738791	     24.55094871	     97.64588970	      6.80515364	    -10.05298454	      3.64302457	     18.87619136	    101.66022381
